<?xml version="1.0" standalone="no"?>
<!DOCTYPE svg PUBLIC "-//W3C//DTD SVG 20010904//EN"
 "http://www.w3.org/TR/2001/REC-SVG-20010904/DTD/svg10.dtd">
<svg version="1.0" xmlns="http://www.w3.org/2000/svg"
 width="512.000000pt" height="512.000000pt" viewBox="0 0 512.000000 512.000000"
 preserveAspectRatio="xMidYMid meet">

<g transform="translate(0.000000,512.000000) scale(0.100000,-0.100000)"
fill="#000000" stroke="none">
<path d="M2094 4776 c-85 -39 -144 -127 -144 -215 l0 -31 620 0 620 0 0 31 c0
88 -59 176 -144 215 l-51 24 -425 0 -425 0 -51 -24z"/>
<path d="M925 4356 c-78 -34 -95 -86 -95 -284 0 -144 2 -162 23 -202 12 -25
37 -55 56 -67 l34 -23 1617 0 1617 0 34 23 c19 12 44 42 57 67 20 40 22 58 22
205 0 147 -2 165 -22 205 -13 24 -36 53 -51 64 -28 21 -31 21 -1645 23 -1327
2 -1622 0 -1647 -11z"/>
<path d="M1067 3613 c-6 -13 101 -2772 112 -2865 13 -117 54 -203 135 -284 34
-34 85 -73 114 -88 112 -57 94 -56 1128 -56 592 0 972 4 1005 10 195 36 353
205 380 405 8 61 119 2727 119 2859 l0 26 -1494 0 c-822 0 -1497 -3 -1499 -7z"/>
</g>
</svg>
